<?xml version="1.0" standalone="no"?><!DOCTYPE svg PUBLIC "-//W3C//DTD SVG 1.1//EN" "http://www.w3.org/Graphics/SVG/1.1/DTD/svg11.dtd"><svg t="1680832072155" class="icon" viewBox="0 0 1024 1024" version="1.1" xmlns="http://www.w3.org/2000/svg" p-id="8819" xmlns:xlink="http://www.w3.org/1999/xlink" width="32" height="32"><path d="M330.971429 468.114286h252.342857v73.142857H330.971429zM330.971429 301.714286h362.057142v73.142857H330.971429zM330.971429 632.685714h142.628571v73.142857h-142.628571z"  p-id="8820"></path><path d="M182.857143 138.971429h658.285714v369.371428h73.142857V102.4c0-20.114286-16.457143-36.571429-36.571428-36.571429H146.285714c-20.114286 0-36.571429 16.457143-36.571428 36.571429v804.571429c0 20.114286 16.457143 36.571429 36.571428 36.571428h365.714286v-73.142857H182.857143v-731.428571z"  p-id="8821"></path><path d="M978.285714 678.4c0-9.142857-3.657143-18.285714-10.971428-25.6l-109.714286-109.714286c-14.628571-14.628571-36.571429-14.628571-51.2 0l-181.028571 181.028572c-3.657143 0-5.485714 0-9.142858 1.828571-12.8 3.657143-21.942857 14.628571-25.6 27.428572L552.228571 914.285714c-3.657143 12.8 0 25.6 9.142858 34.742857 7.314286 7.314286 16.457143 10.971429 25.6 10.971429 3.657143 0 5.485714 0 9.142857-1.828571l162.742857-38.4c12.8-3.657143 23.771429-12.8 27.428571-25.6 0-3.657143 1.828571-5.485714 1.828572-9.142858l181.028571-181.028571c5.485714-7.314286 9.142857-16.457143 9.142857-25.6zM636.342857 874.057143l9.142857-42.057143 31.085715 31.085714-40.228572 10.971429z m106.057143-49.371429l-58.514286-58.514285 148.114286-148.114286 58.514286 58.514286-148.114286 148.114285z"  p-id="8822"></path></svg>