<?xml version="1.0" standalone="no"?><!DOCTYPE svg PUBLIC "-//W3C//DTD SVG 1.1//EN" "http://www.w3.org/Graphics/SVG/1.1/DTD/svg11.dtd"><svg t="1678933206809" class="icon" viewBox="0 0 1024 1024" version="1.1" xmlns="http://www.w3.org/2000/svg" p-id="10476" width="32" height="32" xmlns:xlink="http://www.w3.org/1999/xlink"><path d="M332.8 277.333333h362.666667c17.066667 0 34.133333 12.8 34.133333 34.133334-4.266667 17.066667-17.066667 29.866667-38.4 29.866666H332.8c-21.333333 0-34.133333-12.8-34.133333-34.133333 0-17.066667 12.8-29.866667 34.133333-29.866667zM332.8 448h234.666667c17.066667 0 34.133333 12.8 34.133333 34.133333 0 17.066667-12.8 34.133333-34.133333 34.133334H332.8c-21.333333-4.266667-34.133333-17.066667-34.133333-38.4 0-17.066667 12.8-29.866667 34.133333-29.866667z"  p-id="10477"></path><path d="M584.533333 972.8H469.333333c-17.066667 0-34.133333-12.8-34.133333-34.133333v-115.2c0-8.533333 4.266667-17.066667 8.533333-21.333334l281.6-281.6c29.866667-29.866667 76.8-29.866667 106.666667 0l55.466667 55.466667c12.8 12.8 21.333333 34.133333 21.333333 51.2 0 21.333333-8.533333 38.4-21.333333 51.2l-281.6 281.6c-4.266667 8.533333-12.8 12.8-21.333334 12.8z m-81.066666-64h72.533333l268.8-268.8c4.266667-4.266667 4.266667-4.266667 4.266667-8.533333 0 0 0-4.266667-4.266667-8.533334l-55.466667-55.466666c-4.266667-4.266667-12.8-4.266667-17.066666 0l-268.8 268.8v72.533333z"  p-id="10478"></path><path d="M362.666667 972.8H170.666667c-42.666667 0-76.8-34.133333-76.8-76.8V128C93.866667 85.333333 128 55.466667 170.666667 55.466667h682.666666c42.666667 0 76.8 34.133333 76.8 76.8v341.333333c0 17.066667-12.8 34.133333-34.133333 34.133333s-34.133333-12.8-34.133333-34.133333V128c0-4.266667-4.266667-8.533333-8.533334-8.533333H170.666667c-4.266667 0-8.533333 4.266667-8.533334 8.533333v768c0 4.266667 4.266667 8.533333 8.533334 8.533333h192c17.066667 0 34.133333 12.8 34.133333 34.133334s-17.066667 34.133333-34.133333 34.133333z"  p-id="10479"></path></svg>