<?xml version="1.0" standalone="no"?><!DOCTYPE svg PUBLIC "-//W3C//DTD SVG 1.1//EN" "http://www.w3.org/Graphics/SVG/1.1/DTD/svg11.dtd"><svg t="1678932840125" class="icon" viewBox="0 0 1144 1024" version="1.1" xmlns="http://www.w3.org/2000/svg" p-id="5066" xmlns:xlink="http://www.w3.org/1999/xlink" width="223.4375" height="200"><path d="M1072.067765 367.435294c37.948235 44.815059 30.479059 110.230588-16.865883 147.33553a106.435765 106.435765 0 0 1-93.063529 17.889882l-296.357647 317.680941c3.614118 10.842353 5.421176 23.009882 5.421176 35.418353 0 58.006588-44.754824 102.761412-102.761411 102.761412a101.255529 101.255529 0 0 1-102.761412-102.761412c0-2.650353 0.180706-4.818824 0.722823-7.649882L287.924706 772.517647c-16.745412 10.420706-36.080941 16.263529-54.332235 16.263529a101.255529 101.255529 0 0 1-102.821647-102.821647c0-28.912941 14.456471-58.729412 37.225411-78.004705l-42.465882-187.331765C90.232471 412.370824 61.259294 384.903529 53.007059 351.412706c-17.046588-54.573176 12.950588-110.230588 68.487529-127.578353 29.997176-9.035294 60.175059-4.577882 85.353412 12.348235L386.710588 129.686588c7.770353-25.479529 18.733176-43.730824 34.69553-57.042823 44.032-37.345882 106.315294-31.322353 144.564706 13.854117 10.24 12.890353 16.986353 26.383059 21.022117 42.164706l351.834353 217.208471c43.188706-28.129882 98.665412-19.275294 133.180235 21.504z m-467.546353 141.071059a117.76 117.76 0 0 1-56.018824 82.944l-2.891294 6.686118 41.200941 192.993882 4.818824 4.879059 3.975529 1.024 3.794824 1.264941 6.625882-1.626353 279.491765-297.441882-4.939294-10.661647-270.155294 14.637176-5.903059 5.300706z m-130.288941 96.135529a106.616471 106.616471 0 0 1-51.07953-17.648941l-7.529412 0.361412-89.750588 72.764235-2.048 6.746353a59.873882 59.873882 0 0 1 3.312941 19.094588 33.008941 33.008941 0 0 1-1.325176 8.975059l2.891294 6.927059 183.115294 108.303059 9.396706-6.746353-41.321412-193.776941-5.662117-4.99953z m-190.464 1.144471l90.654117-71.077647 2.168471-6.927059a124.144941 124.144941 0 0 1-5.842824-38.791529c0-2.529882 0.240941-4.276706 1.084236-7.830589l-3.614118-7.228235L217.268706 408.997647l-8.673882 7.228235 40.297411 177.573647 5.240471 4.818824c6.625882 1.024 13.131294 3.252706 22.949647 7.890823l6.625882-0.722823z m-43.248942-271.119059l-0.301176 5.12 3.794823 6.144 151.973648 65.837177 7.28847-1.686589c12.830118-15.058824 28.852706-25.780706 47.525647-31.683764l4.397177-6.02353v-131.312941l-3.493647-5.601882a118.964706 118.964706 0 0 1-31.262118-23.371294l-0.421647-0.421647-7.770353-1.204706-168.116706 96.858353L240.941176 313.283765a150.588235 150.588235 0 0 1-0.421647 21.383529z m316.416-121.615059c-2.108235 2.770824-4.818824 5.782588-9.155764 10.059294l-1.686589 1.385412c-8.854588 5.903059-13.854118 9.035294-18.432 11.203765l-3.553882 5.722353v131.373176l4.216471 6.02353c27.346824 9.818353 50.778353 29.696 64.63247 55.055059l5.963294 3.252705 284.912942-17.468235 2.891294-11.685647L565.248 211.425882l-8.312471 1.566118z"  p-id="5067"></path><path d="M488.146824 610.544941a120.470588 120.470588 0 1 0 0-240.941176 120.470588 120.470588 0 0 0 0 240.941176z"  p-id="5068"></path></svg>