<?xml version="1.0" standalone="no"?><!DOCTYPE svg PUBLIC "-//W3C//DTD SVG 1.1//EN" "http://www.w3.org/Graphics/SVG/1.1/DTD/svg11.dtd"><svg t="1680831716164" class="icon" viewBox="0 0 1024 1024" version="1.1" xmlns="http://www.w3.org/2000/svg" p-id="4999" xmlns:xlink="http://www.w3.org/1999/xlink" width="32" height="32"><path d="M402.204444 910.222222H91.022222V113.777778h743.310222v179.768889h-52.110222V165.888H143.132444v692.224h259.072V910.222222z"  p-id="5000"></path><path d="M227.555556 510.065778h243.256888v52.110222H227.555556zM227.555556 381.041778h243.256888v52.110222H227.555556zM227.555556 252.131556h317.212444v52.110222H227.555556zM778.012444 601.088a153.713778 153.713778 0 0 1 39.367112-102.4 118.215111 118.215111 0 1 0-218.794667-62.919111 121.969778 121.969778 0 0 0 20.821333 66.901333 150.983111 150.983111 0 0 1 15.018667 175.445334h164.750222a151.779556 151.779556 0 0 1-21.162667-77.027556zM500.736 729.770667H932.977778v90.112H500.736zM500.736 864.938667H932.977778v45.056H500.736z"  p-id="5001"></path></svg>