<?xml version="1.0" standalone="no"?><!DOCTYPE svg PUBLIC "-//W3C//DTD SVG 1.1//EN" "http://www.w3.org/Graphics/SVG/1.1/DTD/svg11.dtd"><svg t="1678931950936" class="icon" viewBox="0 0 1024 1024" version="1.1" xmlns="http://www.w3.org/2000/svg" p-id="9029" xmlns:xlink="http://www.w3.org/1999/xlink" width="32" height="32"><path d="M807.729536 316.16c14.08-83.2 34.56-135.68 34.56-135.68 3.84-10.24 1.28-21.76-7.68-29.44l-107.52-89.6c-6.4-5.12-14.08-6.4-21.76-5.12-148.48 32-267.52-49.92-268.8-51.2-8.96-6.4-20.48-6.4-29.44 0-1.28 1.28-119.04 83.2-268.8 49.92-7.68-1.28-15.36 0-21.76 5.12l-107.52 89.6c-8.96 6.4-11.52 19.2-6.4 29.44 1.28 2.56 102.4 247.04 0 540.16-2.56 5.12-2.56 10.24-1.28 15.36C96.049536 1020.16 418.609536 1024 422.449536 1024c2.56 0 51.2 0 116.48-17.92 35.84 11.52 74.24 17.92 113.92 17.92 204.8 0 371.2-166.4 371.2-371.2 0-149.76-88.32-277.76-216.32-336.64zM422.449536 972.8c-11.52 0-284.16-3.84-369.92-245.76 89.6-264.96 25.6-486.4 3.84-550.4L140.849536 106.24c134.4 25.6 244.48-28.16 282.88-51.2 38.4 23.04 147.2 76.8 282.88 52.48l84.48 70.4c-7.68 21.76-20.48 62.72-29.44 119.04-35.84-10.24-71.68-15.36-108.8-15.36-204.8 0-371.2 166.4-371.2 371.2 0 134.4 71.68 252.16 177.92 317.44-23.04 2.56-37.12 2.56-37.12 2.56z m230.4 0c-34.56 0-67.84-5.12-98.56-15.36-2.56-1.28-6.4-2.56-10.24-3.84C421.169536 908.8 332.849536 791.04 332.849536 652.8c0-176.64 143.36-320 320-320 40.96 0 80.64 7.68 116.48 21.76 1.28 0 1.28 1.28 2.56 1.28C889.649536 403.2 972.849536 518.4 972.849536 652.8c0 176.64-143.36 320-320 320z"  p-id="9030"></path><path d="M819.249536 704H678.449536v-80.64c43.52-11.52 76.8-51.2 76.8-98.56 0-56.32-46.08-102.4-102.4-102.4s-102.4 46.08-102.4 102.4c0 47.36 33.28 87.04 76.8 98.56V704H486.449536c-14.08 0-25.6 11.52-25.6 25.6v102.4c0 14.08 11.52 25.6 25.6 25.6h332.8c14.08 0 25.6-11.52 25.6-25.6v-102.4c0-14.08-11.52-25.6-25.6-25.6zM601.649536 524.8c0-28.16 23.04-51.2 51.2-51.2s51.2 23.04 51.2 51.2-23.04 51.2-51.2 51.2-51.2-23.04-51.2-51.2z m192 281.6H512.049536v-51.2h281.6v51.2z" p-id="9031"></path></svg>