<?xml version="1.0" standalone="no"?><!DOCTYPE svg PUBLIC "-//W3C//DTD SVG 1.1//EN" "http://www.w3.org/Graphics/SVG/1.1/DTD/svg11.dtd"><svg t="1683361822560" class="icon" viewBox="0 0 1024 1024" version="1.1" xmlns="http://www.w3.org/2000/svg" p-id="18470" xmlns:xlink="http://www.w3.org/1999/xlink" width="32" height="32"><path d="M397.842286 819.090286l501.357714-504.484572a100.132571 100.132571 0 0 0 0-140.964571L847.469714 121.6a98.614857 98.614857 0 0 0-140.086857 0L213.796571 618.294857a44.086857 44.086857 0 0 0-14.518857 14.628572l-1.828571 1.828571 0.566857 0.566857c-0.365714 0.713143-0.786286 1.389714-1.133714 2.121143l-104.228572 248.941714a37.961143 37.961143 0 0 0 8.082286 42.678857 37.504 37.504 0 0 0 26.459429 10.971429 38.070857 38.070857 0 0 0 16.054857-3.657143l238.811428-105.545143 0.768-0.365714a47.177143 47.177143 0 0 0 5.814857-3.382857l0.566858 0.566857 4.388571-4.425143a47.963429 47.963429 0 0 0 4.242286-4.132571zM743.917714 158.354286a47.232 47.232 0 0 1 67.035429 0l51.730286 52.041143a47.963429 47.963429 0 0 1 0 67.456l-25.746286 25.910857a25.782857 25.782857 0 0 0-5.193143-7.405715L775.314286 241.261714a25.691429 25.691429 0 0 0-36.571429 0.548572 26.093714 26.093714 0 0 0 0.530286 36.736l56.356571 55.094857a25.709714 25.709714 0 0 0 6.838857 4.681143l-409.6 412.251428-118.765714-119.497143zM153.325714 875.282286l83.894857-200.429715 112.786286 113.517715z m142.427429-412.891429a25.6 25.6 0 0 0 18.285714-7.606857 26.112 26.112 0 0 0 0-36.754286l-21.723428-21.851428a25.6 25.6 0 0 0 5.705142-4.077715l56.356572-55.094857a26.093714 26.093714 0 0 0 0.530286-36.736 25.709714 25.709714 0 0 0-36.571429-0.530285l-56.32 55.003428a25.453714 25.453714 0 0 0-4.571429 6.272L218.349714 321.828571l37.558857-36.717714a26.093714 26.093714 0 0 0 0.530286-36.754286 25.728 25.728 0 0 0-36.571428-0.530285l-38.052572 37.193143-35.675428-35.913143 118.857142-119.515429 167.094858 168.228572a25.728 25.728 0 0 0 36.571428 0 26.093714 26.093714 0 0 0 0-36.754286L292.571429 83.894857a41.142857 41.142857 0 0 0-58.715429 3.657143L73.142857 249.106286l204.342857 205.696a25.6 25.6 0 0 0 18.267429 7.606857z m644.443428 267.739429l-176.073142-177.188572a25.728 25.728 0 0 0-36.571429 0 26.093714 26.093714 0 0 0 0 36.754286l167.113143 168.228571-118.857143 119.515429-35.675429-35.913143 37.010286-38.4a26.093714 26.093714 0 0 0-0.530286-36.754286 25.709714 25.709714 0 0 0-36.571428 0.530286l-36.571429 37.796572-38.034285-38.528 53.723428-55.643429a26.112 26.112 0 0 0-0.530286-36.754286 25.691429 25.691429 0 0 0-36.571428 0.530286l-53.138286 55.113143-20.882286-21.010286a25.728 25.728 0 0 0-36.571428 0 26.112 26.112 0 0 0 0 36.754286L775.917714 950.857143l160.64-161.645714a48.64 48.64 0 0 0 13.641143-26.112 37.522286 37.522286 0 0 0-10.002286-32.969143z"  p-id="18471"></path></svg>