<?xml version="1.0" standalone="no"?><!DOCTYPE svg PUBLIC "-//W3C//DTD SVG 1.1//EN" "http://www.w3.org/Graphics/SVG/1.1/DTD/svg11.dtd"><svg t="1678928843485" class="icon" viewBox="0 0 1024 1024" version="1.1" xmlns="http://www.w3.org/2000/svg" p-id="5886" xmlns:xlink="http://www.w3.org/1999/xlink" width="32" height="32"><path d="M242.6 460.4c-29.4 0-59-10.8-81.8-32.6-76-72.4-106.6-151.2-88.8-228.6 21-91 100.8-131.4 170.6-131.4s150 41 170.6 131.4c17.8 77.2-13.2 156.2-88.8 228.6-22.8 21.8-52 32.6-81.8 32.6zM132.2 213.2c-15.8 69 30.2 130.2 71.4 169.4 22 21 56.2 20.6 78.2 0 41.4-39.2 87.2-100.4 71-169.8-14-61.2-68.2-83-110-83-42 0-96 21.8-110.6 83.4z" p-id="5887"></path><path d="M244.2 272.4c-22.8 0-41.4-18.6-41.4-41.4 0-22.8 18.2-41.4 41.4-41.4h0.4c22.8 0 41.4 18.6 41.4 41.4 0 22.8-18.6 41.4-41.8 41.4zM780.6 956.2c-29.4 0-59-10.8-82.2-32.6-76.4-72.4-107.4-151.2-89.2-229 21-90.6 101.2-131.4 171.6-131.4s150.4 41 171.6 131.4c17.8 77.2-13.2 156.6-89.6 228.6-23 22.4-52.4 33-82.2 33z m0-330.6c-42.2 0-96.8 22-111.2 83.4-16.2 69 30.2 130.6 71.4 169.8 22 21 56.6 21 79 0 41.4-39.2 87.6-100.4 71.4-169.4-13.4-61.8-68-83.8-110.6-83.8z" p-id="5888"></path><path d="M782.2 768.2c-22.8 0-41.4-18.6-41.4-41.4 0-22.8 18.2-41.4 41.4-41.4h0.4c22.8 0 41.4 18.6 41.4 41.4 0 22.8-19 41.4-41.8 41.4zM512.4 832.2h-110.8c-48 0-89.6-29-106.2-73.6-17-44.6-4.6-93.8 31.4-125.6l330.2-288.8c19.8-17.4 20.2-41 14.4-57-6.2-16.2-22-33.4-48.4-33.4h-110.8c-17 0-31-14-31-31s14-31 31-31h110.8c48 0 89.6 29 106.2 73.6 17 44.6 4.6 93.8-31.4 125.6l-330 288.8c-19.8 17.4-20.2 41-14.4 57 6.2 16.2 22 33.4 48.4 33.4h110.8c17 0 31 14 31 31s-14.2 31-31.2 31z" p-id="5889"></path><path d="M512.4 832.2h-110.8c-48 0-89.6-29-106.2-73.6-17-44.6-4.6-93.8 31.4-125.6l330.2-288.8c19.8-17.4 20.2-41 14.4-57-6.2-16.2-22-33.4-48.4-33.4h-110.8c-17 0-31-14-31-31s14-31 31-31h110.8c48 0 89.6 29 106.2 73.6 17 44.6 4.6 93.8-31.4 125.6l-330 288.8c-19.8 17.4-20.2 41-14.4 57 6.2 16.2 22 33.4 48.4 33.4h110.8c17 0 31 14 31 31s-14.2 31-31.2 31z" p-id="5890"></path></svg>