<?xml version="1.0" standalone="no"?><!DOCTYPE svg PUBLIC "-//W3C//DTD SVG 1.1//EN" "http://www.w3.org/Graphics/SVG/1.1/DTD/svg11.dtd"><svg t="1678933013860" class="icon" viewBox="0 0 1024 1024" version="1.1" xmlns="http://www.w3.org/2000/svg" p-id="5531" xmlns:xlink="http://www.w3.org/1999/xlink" width="200" height="200"><path d="M701.738667 780.8c58.026667 0 128.490667 13.269333 211.669333 39.637333l19.413333 6.314667-14.165333 42.496c-87.466667-29.162667-159.893333-43.648-216.917333-43.648-28.330667 0-43.050667 3.477333-64.597334 14.037333l-11.242666 5.781334c-34.218667 18.005333-58.176 24.981333-103.466667 24.981333-39.424 0-64-4.992-101.44-18.496l-14.421333-5.376c-41.578667-15.786667-62.890667-20.928-101.930667-20.928-58.581333 0-112.32 11.818667-161.472 35.413333l-13.290667 6.741334-21.077333-39.509334c59.306667-31.637333 124.693333-47.445333 195.84-47.445333 40.96 0 66.218667 5.098667 104.533333 18.922667l14.741334 5.482666c40.512 15.402667 61.184 20.394667 98.517333 20.394667 33.578667 0 50.773333-4.032 74.453333-15.658667l10.944-5.632c32.426667-17.066667 53.866667-23.509333 93.909334-23.509333zM616.768 132.266667c69.482667 0 126.08 54.741333 126.08 122.624l-0.149333 6.272a119.594667 119.594667 0 0 1-2.410667 18.474666l-0.917333 3.946667 130.709333 126.485333 1.429333 1.408a71.232 71.232 0 0 1-1.429333 100.885334l-0.789333 0.682666 67.242666 0.021334v111.957333c0 24.832-12.842667 30.293333-51.626666 36.117333l-4.586667 0.682667-23.466667 3.349333-12.586666 2.069334c-5.248 0.938667-10.112 1.92-14.826667 2.986666-37.013333 8.533333-59.477333 22.506667-68.842667 46.144l-1.365333 3.797334-4.778667 14.762666H250.026667l-3.456-0.277333c-45.738667-7.530667-73.152-29.781333-65.813334-60.842667l0.917334-3.285333 1.173333-3.157333 1.173333-2.517334-5.973333-2.133333c-46.933333-18.005333-76.949333-56.106667-88.256-112.938667l-1.173333-6.4-0.938667-5.909333-3.541333-24.405333 69.44-0.021334L153.6 332.8h134.4v-89.6h134.4v179.178667l179.2 0.021333v90.666667h165.504a76.032 76.032 0 0 1-0.746667-0.704l-139.818666-135.232-2.773334 0.213333a131.370667 131.370667 0 0 1-6.997333 0.192c-69.461333 0-126.08-54.741333-126.08-122.645333 0-12.629333 1.984-25.045333 5.824-36.885334l10.538667-32.554666 55.274666 53.504 1.322667 1.088c1.152 0.874667 4.117333 0.725333 6.016-1.088l17.28-16.704 1.152-1.322667c0.746667-0.917333 0.853333-3.072-0.192-4.949333l-0.96-1.322667-56-54.122667 26.197333-13.696a128.426667 128.426667 0 0 1 59.626667-14.570666zM153.6 555.712l-18.474667 0.021333 0.597334 2.133334c14.4 47.146667 47.466667 70.954667 102.4 73.877333l5.973333 0.213333 5.952 0.085334v42.666666c-10.944 0-19.584 2.837333-24.149333 5.546667l-1.536 1.002667-1.045334 0.853333 2.048 1.493333c4.053333 2.602667 10.346667 5.12 18.88 7.104l4.458667 0.96 3.264 0.597334h472.661333l1.984-3.797334c15.616-28.544 43.242667-46.08 80.981334-56.682666l6.378666-1.706667 5.930667-1.429333c6.72-1.536 13.653333-2.88 21.205333-4.16l7.786667-1.28 35.84-5.269334a167.68 167.68 0 0 0 5.333333-1.002666l2.24-0.469334 1.578667-0.405333V555.733333l-292.266667-0.021333v1.088h-44.8v-1.088h-134.4v1.088H153.6v-1.088zM556.8 467.2h-134.4v45.845333h134.4V467.2z m-179.2-176h-44.288v41.6H332.8v179.178667l44.8 0.021333V291.2z m-89.6 86.4H198.4V512h89.6v-134.4z m328.768-202.666667l-5.269333 0.149334-3.733334 0.341333 9.962667 9.685333c17.066667 17.642667 18.005333 45.248 2.410667 64l-2.730667 2.986667-18.090667 17.514667-2.944 2.645333a47.957333 47.957333 0 0 1-59.861333 0.704l-1.194667-1.045333 0.661334 2.922666c9.237333 34.432 41.813333 60.032 80.789333 60.032 4.736 0 9.386667-0.384 13.952-1.109333l10.538667-1.706667 154.752 149.632c12.373333 11.968 32.021333 11.968 44.394666 0 11.306667-10.944 11.626667-28.970667 0.682667-40.277333l-150.890667-146.005333 4.992-13.141334a76.8 76.8 0 0 0 4.992-27.370666c0-43.989333-37.184-79.957333-83.413333-79.957334z"  p-id="5532"></path></svg>