<?xml version="1.0" standalone="no"?><!DOCTYPE svg PUBLIC "-//W3C//DTD SVG 1.1//EN" "http://www.w3.org/Graphics/SVG/1.1/DTD/svg11.dtd"><svg t="1679102997884" class="icon" viewBox="0 0 1024 1024" version="1.1" xmlns="http://www.w3.org/2000/svg" p-id="3948" xmlns:xlink="http://www.w3.org/1999/xlink" width="32" height="32"><path d="M662.016 288.768V204.288c0.512-19.968-23.04-41.984-41.984-41.984H387.584c-19.456 0-41.984 21.504-41.984 41.984v84.48H219.136c-31.744 0-63.488 33.792-63.488 63.488v105.472h716.8V351.744c0-31.232-31.744-63.488-63.488-63.488h-146.944z m-63.488 0H408.576v-41.984c0-12.8 8.192-20.992 20.992-20.992h147.456c12.8 0 20.992 8.192 20.992 20.992l0.512 41.984z m-84.992 294.4c41.472 0 43.008-51.2 43.008-83.456H451.072c0.512 26.112 1.024 84.48 41.984 84.48 0-0.512 11.776-1.024 20.48-1.024z m84.992-83.968s33.28 126.464-94.72 126.464c-132.608 0-94.72-126.464-94.72-126.464H155.648v294.912c0 32.256 28.672 63.488 63.488 63.488h590.336c31.744 0 63.488-27.136 63.488-63.488V499.2h-274.432z" p-id="3949"></path></svg>